<mxfile host="app.diagrams.net" modified="2024-09-07T05:52:20.103Z" agent="Mozilla/5.0 (Windows NT 10.0; Win64; x64) AppleWebKit/537.36 (KHTML, like Gecko) Chrome/128.0.0.0 Safari/537.36" etag="hiAYvLpXxwMFAz279RLb" version="24.2.7" type="device">
  <diagram name="PÃ¡gina-1" id="xGNyUIkIdbhu4NYuD-94">
    <mxGraphModel dx="1434" dy="1941" grid="1" gridSize="10" guides="1" tooltips="1" connect="1" arrows="1" fold="1" page="1" pageScale="1" pageWidth="827" pageHeight="1169" math="0" shadow="0">
      <root>
        <mxCell id="0" />
        <mxCell id="1" parent="0" />
        <mxCell id="Q_nrGcfXY4_wmcoiNQql-1" value="film" style="swimlane;fontStyle=1;align=center;verticalAlign=top;childLayout=stackLayout;horizontal=1;startSize=26;horizontalStack=0;resizeParent=1;resizeParentMax=0;resizeLast=0;collapsible=1;marginBottom=0;whiteSpace=wrap;html=1;" parent="1" vertex="1">
          <mxGeometry x="1190" y="-220" width="160" height="148" as="geometry" />
        </mxCell>
        <mxCell id="Q_nrGcfXY4_wmcoiNQql-2" value="&lt;div&gt;&lt;div&gt;idFilm&lt;/div&gt;&lt;/div&gt;&lt;div&gt;codeFilm&lt;/div&gt;&lt;div&gt;nameFilm&lt;/div&gt;" style="text;strokeColor=none;fillColor=none;align=left;verticalAlign=top;spacingLeft=4;spacingRight=4;overflow=hidden;rotatable=0;points=[[0,0.5],[1,0.5]];portConstraint=eastwest;whiteSpace=wrap;html=1;" parent="Q_nrGcfXY4_wmcoiNQql-1" vertex="1">
          <mxGeometry y="26" width="160" height="114" as="geometry" />
        </mxCell>
        <mxCell id="Q_nrGcfXY4_wmcoiNQql-3" value="" style="line;strokeWidth=1;fillColor=none;align=left;verticalAlign=middle;spacingTop=-1;spacingLeft=3;spacingRight=3;rotatable=0;labelPosition=right;points=[];portConstraint=eastwest;strokeColor=inherit;" parent="Q_nrGcfXY4_wmcoiNQql-1" vertex="1">
          <mxGeometry y="140" width="160" height="8" as="geometry" />
        </mxCell>
        <mxCell id="Q_nrGcfXY4_wmcoiNQql-5" value="customer" style="swimlane;fontStyle=1;align=center;verticalAlign=top;childLayout=stackLayout;horizontal=1;startSize=26;horizontalStack=0;resizeParent=1;resizeParentMax=0;resizeLast=0;collapsible=1;marginBottom=0;whiteSpace=wrap;html=1;" parent="1" vertex="1">
          <mxGeometry x="667" y="-220" width="160" height="200" as="geometry" />
        </mxCell>
        <mxCell id="Q_nrGcfXY4_wmcoiNQql-6" value="idUser&lt;div&gt;mail&lt;/div&gt;&lt;div&gt;name&lt;/div&gt;&lt;div&gt;surname&lt;/div&gt;&lt;div&gt;dni&lt;/div&gt;&lt;div&gt;date&lt;/div&gt;&lt;div&gt;age&lt;/div&gt;&lt;div&gt;password&lt;/div&gt;&lt;div&gt;tips&lt;/div&gt;" style="text;strokeColor=none;fillColor=none;align=left;verticalAlign=top;spacingLeft=4;spacingRight=4;overflow=hidden;rotatable=0;points=[[0,0.5],[1,0.5]];portConstraint=eastwest;whiteSpace=wrap;html=1;" parent="Q_nrGcfXY4_wmcoiNQql-5" vertex="1">
          <mxGeometry y="26" width="160" height="144" as="geometry" />
        </mxCell>
        <mxCell id="Q_nrGcfXY4_wmcoiNQql-7" value="" style="line;strokeWidth=1;fillColor=none;align=left;verticalAlign=middle;spacingTop=-1;spacingLeft=3;spacingRight=3;rotatable=0;labelPosition=right;points=[];portConstraint=eastwest;strokeColor=inherit;" parent="Q_nrGcfXY4_wmcoiNQql-5" vertex="1">
          <mxGeometry y="170" width="160" height="30" as="geometry" />
        </mxCell>
        <mxCell id="Q_nrGcfXY4_wmcoiNQql-20" value="ticket" style="swimlane;fontStyle=1;align=center;verticalAlign=top;childLayout=stackLayout;horizontal=1;startSize=26;horizontalStack=0;resizeParent=1;resizeParentMax=0;resizeLast=0;collapsible=1;marginBottom=0;whiteSpace=wrap;html=1;" parent="1" vertex="1">
          <mxGeometry x="920" width="160" height="228" as="geometry" />
        </mxCell>
        <mxCell id="Q_nrGcfXY4_wmcoiNQql-21" value="idTicket&lt;div&gt;nameFilm&lt;/div&gt;&lt;div&gt;chair&lt;/div&gt;&lt;div&gt;finalPrice&lt;/div&gt;&lt;div&gt;date&lt;/div&gt;&lt;div&gt;time&lt;/div&gt;&lt;div&gt;typeOfFuntion&lt;/div&gt;&lt;div&gt;language&lt;/div&gt;&lt;div&gt;voucher&lt;/div&gt;&lt;div&gt;idUser&lt;/div&gt;&lt;div&gt;purchaseDate&lt;/div&gt;&lt;div&gt;status&lt;/div&gt;" style="text;strokeColor=none;fillColor=none;align=left;verticalAlign=top;spacingLeft=4;spacingRight=4;overflow=hidden;rotatable=0;points=[[0,0.5],[1,0.5]];portConstraint=eastwest;whiteSpace=wrap;html=1;" parent="Q_nrGcfXY4_wmcoiNQql-20" vertex="1">
          <mxGeometry y="26" width="160" height="194" as="geometry" />
        </mxCell>
        <mxCell id="Q_nrGcfXY4_wmcoiNQql-22" value="" style="line;strokeWidth=1;fillColor=none;align=left;verticalAlign=middle;spacingTop=-1;spacingLeft=3;spacingRight=3;rotatable=0;labelPosition=right;points=[];portConstraint=eastwest;strokeColor=inherit;" parent="Q_nrGcfXY4_wmcoiNQql-20" vertex="1">
          <mxGeometry y="220" width="160" height="8" as="geometry" />
        </mxCell>
        <mxCell id="UTb-Gx4vYZy70Gr0vHGK-12" value="movietheater&lt;div&gt;&lt;br&gt;&lt;/div&gt;" style="swimlane;fontStyle=1;align=center;verticalAlign=top;childLayout=stackLayout;horizontal=1;startSize=26;horizontalStack=0;resizeParent=1;resizeParentMax=0;resizeLast=0;collapsible=1;marginBottom=0;whiteSpace=wrap;html=1;" parent="1" vertex="1">
          <mxGeometry x="1310" y="-20" width="160" height="150" as="geometry" />
        </mxCell>
        <mxCell id="Q_nrGcfXY4_wmcoiNQql-24" value="&lt;div&gt;idMovieTheater&lt;/div&gt;&lt;div&gt;codeFilm&lt;/div&gt;&lt;div&gt;nameFilm&lt;/div&gt;&lt;div&gt;date&lt;/div&gt;&lt;div&gt;time&lt;/div&gt;&lt;div&gt;typeOffuntion&lt;/div&gt;&lt;div&gt;language&lt;/div&gt;&lt;div&gt;price&lt;/div&gt;" style="text;strokeColor=none;fillColor=none;align=left;verticalAlign=top;spacingLeft=4;spacingRight=4;overflow=hidden;rotatable=0;points=[[0,0.5],[1,0.5]];portConstraint=eastwest;whiteSpace=wrap;html=1;" parent="UTb-Gx4vYZy70Gr0vHGK-12" vertex="1">
          <mxGeometry y="26" width="160" height="124" as="geometry" />
        </mxCell>
        <mxCell id="y75i8gNE7K1XStGT13ge-4" style="edgeStyle=orthogonalEdgeStyle;rounded=0;orthogonalLoop=1;jettySize=auto;html=1;entryX=-0.037;entryY=0.632;entryDx=0;entryDy=0;entryPerimeter=0;" edge="1" parent="1" source="Q_nrGcfXY4_wmcoiNQql-6" target="Q_nrGcfXY4_wmcoiNQql-2">
          <mxGeometry relative="1" as="geometry" />
        </mxCell>
        <mxCell id="y75i8gNE7K1XStGT13ge-7" value="1..N" style="edgeLabel;html=1;align=center;verticalAlign=middle;resizable=0;points=[];" vertex="1" connectable="0" parent="y75i8gNE7K1XStGT13ge-4">
          <mxGeometry x="-0.9048" y="1" relative="1" as="geometry">
            <mxPoint y="-14" as="offset" />
          </mxGeometry>
        </mxCell>
        <mxCell id="y75i8gNE7K1XStGT13ge-8" value="1..M" style="edgeLabel;html=1;align=center;verticalAlign=middle;resizable=0;points=[];" vertex="1" connectable="0" parent="y75i8gNE7K1XStGT13ge-4">
          <mxGeometry x="0.7587" y="3" relative="1" as="geometry">
            <mxPoint y="-5" as="offset" />
          </mxGeometry>
        </mxCell>
        <mxCell id="y75i8gNE7K1XStGT13ge-5" value="" style="endArrow=none;dashed=1;html=1;dashPattern=1 3;strokeWidth=2;rounded=0;" edge="1" parent="1">
          <mxGeometry width="50" height="50" relative="1" as="geometry">
            <mxPoint x="990" as="sourcePoint" />
            <mxPoint x="990" y="-120" as="targetPoint" />
          </mxGeometry>
        </mxCell>
        <mxCell id="y75i8gNE7K1XStGT13ge-6" style="edgeStyle=orthogonalEdgeStyle;rounded=0;orthogonalLoop=1;jettySize=auto;html=1;entryX=1.019;entryY=0.316;entryDx=0;entryDy=0;entryPerimeter=0;" edge="1" parent="1" source="UTb-Gx4vYZy70Gr0vHGK-12" target="Q_nrGcfXY4_wmcoiNQql-2">
          <mxGeometry relative="1" as="geometry" />
        </mxCell>
        <mxCell id="y75i8gNE7K1XStGT13ge-9" value="1..N" style="edgeLabel;html=1;align=center;verticalAlign=middle;resizable=0;points=[];" vertex="1" connectable="0" parent="y75i8gNE7K1XStGT13ge-6">
          <mxGeometry x="0.1431" y="-4" relative="1" as="geometry">
            <mxPoint x="6" y="20" as="offset" />
          </mxGeometry>
        </mxCell>
        <mxCell id="y75i8gNE7K1XStGT13ge-10" style="edgeStyle=orthogonalEdgeStyle;rounded=0;orthogonalLoop=1;jettySize=auto;html=1;entryX=1.013;entryY=0.387;entryDx=0;entryDy=0;entryPerimeter=0;" edge="1" parent="1" source="Q_nrGcfXY4_wmcoiNQql-24" target="Q_nrGcfXY4_wmcoiNQql-21">
          <mxGeometry relative="1" as="geometry" />
        </mxCell>
        <mxCell id="y75i8gNE7K1XStGT13ge-11" value="1..N" style="edgeLabel;html=1;align=center;verticalAlign=middle;resizable=0;points=[];" vertex="1" connectable="0" parent="y75i8gNE7K1XStGT13ge-10">
          <mxGeometry x="-0.6475" y="-3" relative="1" as="geometry">
            <mxPoint y="-10" as="offset" />
          </mxGeometry>
        </mxCell>
      </root>
    </mxGraphModel>
  </diagram>
</mxfile>
